<?xml version="1.0" encoding="UTF-8"?>
<!DOCTYPE svg PUBLIC "-//W3C//DTD SVG 1.1//EN" "http://www.w3.org/Graphics/SVG/1.1/DTD/svg11.dtd">
<svg xmlns="http://www.w3.org/2000/svg" version="1.1" width="265px" height="76px" style="shape-rendering:geometricPrecision; text-rendering:geometricPrecision; image-rendering:optimizeQuality; fill-rule:evenodd; clip-rule:evenodd" xmlns:xlink="http://www.w3.org/1999/xlink">
<g><path style="opacity:0.927" fill="#252625" d="M 25.5,22.5 C 27.1667,22.5 28.8333,22.5 30.5,22.5C 31.5,22.5 32.5,22.5 33.5,22.5C 33.5,23.1667 33.5,23.8333 33.5,24.5C 32.5,24.5 31.5,24.5 30.5,24.5C 29.5,24.5 28.5,24.5 27.5,24.5C 27.44,23.9569 27.1067,23.6236 26.5,23.5C 25.5713,24.6888 25.238,26.0222 25.5,27.5C 24.1667,25.8333 24.1667,24.1667 25.5,22.5 Z"/></g>
<g><path style="opacity:0.498" fill="#f0f0f0" d="M 25.5,22.5 C 24.1667,24.1667 24.1667,25.8333 25.5,27.5C 25.5,27.8333 25.5,28.1667 25.5,28.5C 24.5,28.5 23.5,28.5 22.5,28.5C 22.2475,25.6802 22.7475,23.0135 24,20.5C 24.7172,21.0442 25.2172,21.7109 25.5,22.5 Z"/></g>
<g><path style="opacity:0.996" fill="#171819" d="M 33.5,22.5 C 37.5,22.5 41.5,22.5 45.5,22.5C 45.5,23.1667 45.5,23.8333 45.5,24.5C 45.1667,24.5 44.8333,24.5 44.5,24.5C 41.1667,24.5 37.8333,24.5 34.5,24.5C 34.1667,24.5 33.8333,24.5 33.5,24.5C 33.5,23.8333 33.5,23.1667 33.5,22.5 Z"/></g>
<g><path style="opacity:1" fill="#161818" d="M 76.5,22.5 C 76.8333,22.5 77.1667,22.5 77.5,22.5C 77.5,22.8333 77.5,23.1667 77.5,23.5C 76.791,24.404 75.791,24.7373 74.5,24.5C 71.5,24.5 68.5,24.5 65.5,24.5C 68.8756,22.9177 72.5422,22.2511 76.5,22.5 Z"/></g>
<g><path style="opacity:0.118" fill="#b8bbb9" d="M 27.5,24.5 C 28.5,24.5 29.5,24.5 30.5,24.5C 29.8505,26.4352 29.5172,28.4352 29.5,30.5C 29.5,31.1667 29.5,31.8333 29.5,32.5C 29.8205,37.6946 29.4872,42.6946 28.5,47.5C 29.0829,39.9571 28.4162,32.6237 26.5,25.5C 26.6236,24.8933 26.9569,24.56 27.5,24.5 Z"/></g>
<g><path style="opacity:0.242" fill="#f7f8f7" d="M 34.5,24.5 C 37.8333,24.5 41.1667,24.5 44.5,24.5C 44.9227,26.7812 44.256,28.4479 42.5,29.5C 42.5,28.5 42.5,27.5 42.5,26.5C 40.1667,26.5 37.8333,26.5 35.5,26.5C 35.1667,25.8333 34.8333,25.1667 34.5,24.5 Z"/></g>
<g><path style="opacity:0.533" fill="#949595" d="M 62.5,24.5 C 61.8333,25.8333 60.8333,26.8333 59.5,27.5C 59.5,25.5 60.5,24.5 62.5,24.5 Z"/></g>
<g><path style="opacity:0.194" fill="#dbdddd" d="M 65.5,24.5 C 68.5,24.5 71.5,24.5 74.5,24.5C 74.5,24.8333 74.5,25.1667 74.5,25.5C 73.1667,25.8333 73.1667,26.1667 74.5,26.5C 74.5,26.8333 74.5,27.1667 74.5,27.5C 70.2473,26.8075 66.5807,27.8075 63.5,30.5C 63.7373,29.209 63.404,28.209 62.5,27.5C 63.3065,26.2719 64.3065,25.2719 65.5,24.5 Z"/></g>
<g><path style="opacity:1" fill="#202b2a" d="M 77.5,23.5 C 78.791,23.2627 79.791,23.596 80.5,24.5C 80.2895,27.752 80.9562,30.752 82.5,33.5C 81.5,34.8333 80.5,34.8333 79.5,33.5C 78.1667,33.5 76.8333,33.5 75.5,33.5C 75.3284,32.5084 75.6618,31.8417 76.5,31.5C 78.3079,30.0821 78.9746,28.0821 78.5,25.5C 77.5,25.5 76.5,25.5 75.5,25.5C 75.1667,25.5 74.8333,25.5 74.5,25.5C 74.5,25.1667 74.5,24.8333 74.5,24.5C 75.791,24.7373 76.791,24.404 77.5,23.5 Z"/></g>
<g><path style="opacity:0.888" fill="#737675" d="M 35.5,26.5 C 37.8333,26.5 40.1667,26.5 42.5,26.5C 42.5,27.5 42.5,28.5 42.5,29.5C 41.8333,28.8333 41.1667,28.1667 40.5,27.5C 38.1667,27.5 35.8333,27.5 33.5,27.5C 33.5,30.1667 33.5,32.8333 33.5,35.5C 33.1667,35.5 32.8333,35.5 32.5,35.5C 32.5,34.8333 32.5,34.1667 32.5,33.5C 32.5,32.1667 32.5,30.8333 32.5,29.5C 32.5,28.5 32.5,27.5 32.5,26.5C 33.5,26.5 34.5,26.5 35.5,26.5 Z"/></g>
<g><path style="opacity:1" fill="#010e0d" d="M 40.5,27.5 C 40.5,28.1667 40.1667,28.5 39.5,28.5C 37.8333,28.5 36.1667,28.5 34.5,28.5C 34.5,30.1667 34.5,31.8333 34.5,33.5C 37.4382,34.0703 39.7715,34.7369 41.5,35.5C 38.8333,35.5 36.1667,35.5 33.5,35.5C 33.5,32.8333 33.5,30.1667 33.5,27.5C 35.8333,27.5 38.1667,27.5 40.5,27.5 Z"/></g>
<g><path style="opacity:1" fill="#719d97" d="M 30.5,22.5 C 36.3188,21.3475 42.3188,21.1808 48.5,22C 49.4558,25.3936 49.7892,28.8936 49.5,32.5C 48.5,32.5 47.5,32.5 46.5,32.5C 46.8128,28.9581 46.4794,25.6248 45.5,22.5C 41.5,22.5 37.5,22.5 33.5,22.5C 32.5,22.5 31.5,22.5 30.5,22.5 Z"/></g>
<g><path style="opacity:0.994" fill="#34655f" d="M 80.5,24.5 C 81.8333,26.5 83.1667,28.5 84.5,30.5C 84.8417,31.3382 85.5084,31.6716 86.5,31.5C 85.4863,32.6737 84.153,33.3404 82.5,33.5C 80.9562,30.752 80.2895,27.752 80.5,24.5 Z"/></g>
<g><path style="opacity:0.992" fill="#2e2e2e" d="M 27.5,24.5 C 26.9569,24.56 26.6236,24.8933 26.5,25.5C 28.4162,32.6237 29.0829,39.9571 28.5,47.5C 27.9569,47.56 27.6236,47.8933 27.5,48.5C 29.396,49.4656 31.396,49.7989 33.5,49.5C 37.1667,49.5 40.8333,49.5 44.5,49.5C 45.1667,49.5 45.5,49.8333 45.5,50.5C 38.8333,50.5 32.1667,50.5 25.5,50.5C 25.5,48.8333 25.5,47.1667 25.5,45.5C 26.8333,39.8333 26.8333,34.1667 25.5,28.5C 25.5,28.1667 25.5,27.8333 25.5,27.5C 25.238,26.0222 25.5713,24.6888 26.5,23.5C 27.1067,23.6236 27.44,23.9569 27.5,24.5 Z"/></g>
<g><path style="opacity:1" fill="#373a3a" d="M 44.5,24.5 C 44.8333,24.5 45.1667,24.5 45.5,24.5C 45.5,26.5 45.5,28.5 45.5,30.5C 43.901,30.2322 42.5676,30.5655 41.5,31.5C 40.8333,30.8333 40.1667,30.1667 39.5,29.5C 39.5,29.1667 39.5,28.8333 39.5,28.5C 40.1667,28.5 40.5,28.1667 40.5,27.5C 41.1667,28.1667 41.8333,28.8333 42.5,29.5C 44.256,28.4479 44.9227,26.7812 44.5,24.5 Z"/></g>
<g><path style="opacity:1" fill="#434444" d="M 76.5,22.5 C 72.5422,22.2511 68.8756,22.9177 65.5,24.5C 64.3065,25.2719 63.3065,26.2719 62.5,27.5C 60.7376,28.2623 59.7376,29.5956 59.5,31.5C 58.5233,34.2869 58.19,37.2869 58.5,40.5C 57.8333,38.8333 57.1667,37.1667 56.5,35.5C 56.1667,35.5 55.8333,35.5 55.5,35.5C 55.8333,34.8333 56.1667,34.1667 56.5,33.5C 57.5375,32.0697 58.2041,30.403 58.5,28.5C 58.5,27.8333 58.8333,27.5 59.5,27.5C 60.8333,26.8333 61.8333,25.8333 62.5,24.5C 66.9138,21.699 71.5804,21.0324 76.5,22.5 Z"/></g>
<g><path style="opacity:0.988" fill="#202a2a" d="M 74.5,27.5 C 74.8333,27.5 75.1667,27.5 75.5,27.5C 75.8693,29.9935 75.2027,30.6602 73.5,29.5C 72.5,29.5 71.5,29.5 70.5,29.5C 68.302,29.1201 66.6354,29.7868 65.5,31.5C 64.8333,32.1667 64.1667,32.8333 63.5,33.5C 63.1667,33.5 62.8333,33.5 62.5,33.5C 62.5,33.1667 62.5,32.8333 62.5,32.5C 62.5,32.1667 62.5,31.8333 62.5,31.5C 63.1667,31.5 63.5,31.1667 63.5,30.5C 66.5807,27.8075 70.2473,26.8075 74.5,27.5 Z"/></g>
<g><path style="opacity:0.028" fill="#fcfcfc" d="M 32.5,29.5 C 32.5,30.8333 32.5,32.1667 32.5,33.5C 31.391,33.4431 30.391,33.1098 29.5,32.5C 29.5,31.8333 29.5,31.1667 29.5,30.5C 30.391,29.8902 31.391,29.5569 32.5,29.5 Z"/></g>
<g><path style="opacity:0.569" fill="#89888a" d="M 58.5,28.5 C 58.2041,30.403 57.5375,32.0697 56.5,33.5C 56.1201,31.302 56.7868,29.6354 58.5,28.5 Z"/></g>
<g><path style="opacity:1" fill="#e1e4e3" d="M 62.5,27.5 C 63.404,28.209 63.7373,29.209 63.5,30.5C 63.5,31.1667 63.1667,31.5 62.5,31.5C 61.6522,30.375 60.6522,30.375 59.5,31.5C 59.7376,29.5956 60.7376,28.2623 62.5,27.5 Z"/></g>
<g><path style="opacity:0.124" fill="#f8f6fa" d="M 75.5,25.5 C 76.5,25.5 77.5,25.5 78.5,25.5C 78.9746,28.0821 78.3079,30.0821 76.5,31.5C 76.7678,29.901 76.4345,28.5676 75.5,27.5C 75.1667,27.5 74.8333,27.5 74.5,27.5C 74.5,27.1667 74.5,26.8333 74.5,26.5C 75.1667,26.5 75.5,26.1667 75.5,25.5 Z"/></g>
<g><path style="opacity:0.616" fill="#81afa9" d="M 77.5,23.5 C 77.5,23.1667 77.5,22.8333 77.5,22.5C 79.2624,22.3573 80.9291,22.6906 82.5,23.5C 82.9642,25.9749 83.9642,27.9749 85.5,29.5C 85.5,30.1667 85.1667,30.5 84.5,30.5C 83.1667,28.5 81.8333,26.5 80.5,24.5C 79.791,23.596 78.791,23.2627 77.5,23.5 Z"/></g>
<g><path style="opacity:0.753" fill="#616f6f" d="M 92.5,29.5 C 97.5,29.5 102.5,29.5 107.5,29.5C 103.881,29.8813 100.548,30.8813 97.5,32.5C 95.5659,31.8897 93.8993,30.8897 92.5,29.5 Z"/></g>
<g><path style="opacity:0.859" fill="#677675" d="M 138.5,29.5 C 135.713,30.4767 132.713,30.81 129.5,30.5C 128.833,30.5 128.5,30.8333 128.5,31.5C 127.833,32.1667 127.167,32.8333 126.5,33.5C 125.833,32.1667 124.833,31.1667 123.5,30.5C 122.833,30.5 122.5,30.1667 122.5,29.5C 127.807,29.1799 133.14,29.1799 138.5,29.5 Z"/></g>
<g><path style="opacity:0.888" fill="#383a3b" d="M 172.5,29.5 C 172.5,29.8333 172.5,30.1667 172.5,30.5C 171.209,30.2627 170.209,30.596 169.5,31.5C 167.801,31.6602 166.134,31.4935 164.5,31C 165.056,30.6174 165.389,30.1174 165.5,29.5C 167.833,28.1667 170.167,28.1667 172.5,29.5 Z"/></g>
<g><path style="opacity:0.996" fill="#325e58" d="M 39.5,28.5 C 39.5,28.8333 39.5,29.1667 39.5,29.5C 38.5,29.5 37.5,29.5 36.5,29.5C 36.5,30.8333 36.5,32.1667 36.5,33.5C 35.8333,33.5 35.1667,33.5 34.5,33.5C 34.5,31.8333 34.5,30.1667 34.5,28.5C 36.1667,28.5 37.8333,28.5 39.5,28.5 Z"/></g>
<g><path style="opacity:0.902" fill="#404747" d="M 92.5,29.5 C 93.8993,30.8897 95.5659,31.8897 97.5,32.5C 97.1667,33.1667 96.8333,33.8333 96.5,34.5C 96.1667,34.5 95.8333,34.5 95.5,34.5C 95.0269,33.0937 94.0269,32.427 92.5,32.5C 90.5648,31.8505 88.5648,31.5172 86.5,31.5C 85.5084,31.6716 84.8417,31.3382 84.5,30.5C 85.1667,30.5 85.5,30.1667 85.5,29.5C 87.8744,28.3139 90.2078,28.3139 92.5,29.5 Z"/></g>
<g><path style="opacity:0.965" fill="#5b6a68" d="M 116.5,29.5 C 115.211,30.6366 114.211,31.9699 113.5,33.5C 112.29,33.0679 111.29,32.4013 110.5,31.5C 111.5,31.1667 112.167,30.5 112.5,29.5C 113.528,29.0742 114.861,29.0742 116.5,29.5 Z"/></g>
<g><path style="opacity:0.89" fill="#282d2e" d="M 116.5,29.5 C 118.5,29.5 120.5,29.5 122.5,29.5C 122.5,30.1667 122.833,30.5 123.5,30.5C 123.158,31.3382 122.492,31.6716 121.5,31.5C 119.708,31.366 118.042,31.6993 116.5,32.5C 115.391,32.5569 114.391,32.8902 113.5,33.5C 114.211,31.9699 115.211,30.6366 116.5,29.5 Z"/></g>
<g><path style="opacity:1" fill="#2b3031" d="M 138.5,29.5 C 139.833,29.5 141.167,29.5 142.5,29.5C 144.5,30.1667 146.5,30.8333 148.5,31.5C 147.71,32.4013 146.71,33.0679 145.5,33.5C 144.395,32.3995 143.062,31.7329 141.5,31.5C 140.041,31.4326 138.708,31.7659 137.5,32.5C 136.391,32.4431 135.391,32.1098 134.5,31.5C 133.5,31.5 132.5,31.5 131.5,31.5C 130.833,31.5 130.167,31.5 129.5,31.5C 129.5,31.1667 129.5,30.8333 129.5,30.5C 132.713,30.81 135.713,30.4767 138.5,29.5 Z"/></g>
<g><path style="opacity:0.912" fill="#454c4b" d="M 153.5,29.5 C 153.953,30.4584 154.619,31.2917 155.5,32C 154.906,32.4643 154.239,32.631 153.5,32.5C 151.883,31.962 150.216,31.6287 148.5,31.5C 146.5,30.8333 144.5,30.1667 142.5,29.5C 146.329,29.0726 149.996,29.0726 153.5,29.5 Z"/></g>
<g><path style="opacity:0.855" fill="#7e7e7e" d="M 165.5,29.5 C 165.389,30.1174 165.056,30.6174 164.5,31C 166.134,31.4935 167.801,31.6602 169.5,31.5C 170.492,31.3284 171.158,31.6618 171.5,32.5C 169.167,32.5 166.833,32.5 164.5,32.5C 163.508,32.6716 162.842,32.3382 162.5,31.5C 162.973,30.0937 163.973,29.427 165.5,29.5 Z"/></g>
<g><path style="opacity:0.982" fill="#545a5a" d="M 172.5,30.5 C 172.5,30.1667 172.5,29.8333 172.5,29.5C 177.5,29.5 182.5,29.5 187.5,29.5C 187.5,30.1667 187.5,30.8333 187.5,31.5C 186.306,32.2719 185.306,33.2719 184.5,34.5C 182.952,34.1788 182.285,33.1788 182.5,31.5C 181.127,31.3433 179.793,31.51 178.5,32C 179.056,32.3826 179.389,32.8826 179.5,33.5C 178.1,32.9002 177.1,31.9002 176.5,30.5C 175.167,30.5 173.833,30.5 172.5,30.5 Z"/></g>
<g><path style="opacity:1" fill="#161d1c" d="M 204.5,30.5 C 205.167,30.5 205.5,30.8333 205.5,31.5C 205.158,32.3382 204.492,32.6716 203.5,32.5C 203.167,32.5 202.833,32.5 202.5,32.5C 200.369,31.6862 198.036,31.1862 195.5,31C 198.482,30.502 201.482,30.3354 204.5,30.5 Z"/></g>
<g><path style="opacity:0.8" fill="#749c96" d="M 204.5,30.5 C 204.5,30.1667 204.5,29.8333 204.5,29.5C 206.833,30.1667 209.167,30.8333 211.5,31.5C 211.5,32.1667 211.167,32.5 210.5,32.5C 208.708,32.634 207.042,32.3007 205.5,31.5C 205.5,30.8333 205.167,30.5 204.5,30.5 Z"/></g>
<g><path style="opacity:0.959" fill="#333636" d="M 214.5,29.5 C 216.833,29.5 219.167,29.5 221.5,29.5C 221.5,29.8333 221.5,30.1667 221.5,30.5C 221.062,30.4346 220.728,30.6012 220.5,31C 221.416,31.2784 222.082,31.7784 222.5,32.5C 220.5,32.1667 218.5,31.8333 216.5,31.5C 214.007,31.8693 213.34,31.2027 214.5,29.5 Z"/></g>
<g><path style="opacity:0.927" fill="#80898b" d="M 221.5,30.5 C 221.5,30.1667 221.5,29.8333 221.5,29.5C 224.872,30.5191 228.206,30.5191 231.5,29.5C 231.389,30.1174 231.056,30.6174 230.5,31C 233.036,31.1862 235.369,31.6862 237.5,32.5C 234.162,32.0653 231.162,32.7319 228.5,34.5C 227.789,32.7986 226.455,31.7986 224.5,31.5C 223.609,30.8902 222.609,30.5569 221.5,30.5 Z"/></g>
<g><path style="opacity:1" fill="#1d2523" d="M 231.5,29.5 C 233.833,29.5 236.167,29.5 238.5,29.5C 239.167,30.5 239.833,31.5 240.5,32.5C 239.833,32.5 239.167,32.5 238.5,32.5C 238.167,32.5 237.833,32.5 237.5,32.5C 235.369,31.6862 233.036,31.1862 230.5,31C 231.056,30.6174 231.389,30.1174 231.5,29.5 Z"/></g>
<g><path style="opacity:0.957" fill="#0c1d1a" d="M 45.5,22.5 C 46.4794,25.6248 46.8128,28.9581 46.5,32.5C 44.5853,32.7845 42.9187,32.4511 41.5,31.5C 42.5676,30.5655 43.901,30.2322 45.5,30.5C 45.5,28.5 45.5,26.5 45.5,24.5C 45.5,23.8333 45.5,23.1667 45.5,22.5 Z"/></g>
<g><path style="opacity:0.843" fill="#629690" d="M 70.5,29.5 C 67.5397,32.0997 66.2063,35.433 66.5,39.5C 65.5269,37.0521 65.1936,34.3854 65.5,31.5C 66.6354,29.7868 68.302,29.1201 70.5,29.5 Z"/></g>
<g><path style="opacity:0.655" fill="#808181" d="M 75.5,27.5 C 76.4345,28.5676 76.7678,29.901 76.5,31.5C 75.6618,31.8417 75.3284,32.5084 75.5,33.5C 74.3263,32.4863 73.6596,31.153 73.5,29.5C 75.2027,30.6602 75.8693,29.9935 75.5,27.5 Z"/></g>
<g><path style="opacity:0.961" fill="#272c2c" d="M 107.5,29.5 C 109.167,29.5 110.833,29.5 112.5,29.5C 112.167,30.5 111.5,31.1667 110.5,31.5C 109.167,31.8333 107.833,32.1667 106.5,32.5C 105.391,32.4431 104.391,32.1098 103.5,31.5C 102.5,31.5 101.5,31.5 100.5,31.5C 99.0568,32.3351 98.0568,33.6684 97.5,35.5C 96.8933,35.3764 96.56,35.0431 96.5,34.5C 96.8333,33.8333 97.1667,33.1667 97.5,32.5C 100.548,30.8813 103.881,29.8813 107.5,29.5 Z"/></g>
<g><path style="opacity:0.988" fill="#4b5f5c" d="M 123.5,30.5 C 124.833,31.1667 125.833,32.1667 126.5,33.5C 125.566,34.5676 125.232,35.901 125.5,37.5C 125.024,34.9293 123.69,32.9293 121.5,31.5C 122.492,31.6716 123.158,31.3382 123.5,30.5 Z"/></g>
<g><path style="opacity:0.643" fill="#9ea4a0" d="M 141.5,31.5 C 143.062,31.7329 144.395,32.3995 145.5,33.5C 143.708,34.4728 142.375,33.8061 141.5,31.5 Z"/></g>
<g><path style="opacity:0.973" fill="#242e2d" d="M 169.5,31.5 C 170.209,30.596 171.209,30.2627 172.5,30.5C 173.833,30.5 175.167,30.5 176.5,30.5C 175.833,31.8333 175.167,33.1667 174.5,34.5C 173.5,33.8333 172.5,33.1667 171.5,32.5C 171.158,31.6618 170.492,31.3284 169.5,31.5 Z"/></g>
<g><path style="opacity:1" fill="#65716e" d="M 191.5,29.5 C 195.833,29.5 200.167,29.5 204.5,29.5C 204.5,29.8333 204.5,30.1667 204.5,30.5C 201.482,30.3354 198.482,30.502 195.5,31C 198.036,31.1862 200.369,31.6862 202.5,32.5C 199.246,32.2069 196.246,32.8736 193.5,34.5C 193.107,32.7162 192.441,31.0495 191.5,29.5 Z"/></g>
<g><path style="opacity:0.329" fill="#c0d4d2" d="M 39.5,29.5 C 40.1667,30.1667 40.8333,30.8333 41.5,31.5C 42.9187,32.4511 44.5853,32.7845 46.5,32.5C 46.5,33.5 46.5,34.5 46.5,35.5C 46.1667,35.5 45.8333,35.5 45.5,35.5C 45.5,34.1667 44.8333,33.5 43.5,33.5C 41.1667,33.5 38.8333,33.5 36.5,33.5C 36.5,32.1667 36.5,30.8333 36.5,29.5C 37.5,29.5 38.5,29.5 39.5,29.5 Z"/></g>
<g><path style="opacity:0.013" fill="#ddddde" d="M 92.5,32.5 C 94.0269,32.427 95.0269,33.0937 95.5,34.5C 94.5,34.8333 93.8333,35.5 93.5,36.5C 92.5,36.1667 91.8333,35.5 91.5,34.5C 92.3382,34.1583 92.6716,33.4916 92.5,32.5 Z"/></g>
<g><path style="opacity:0.078" fill="#c0c2c0" d="M 103.5,31.5 C 104.391,32.1098 105.391,32.4431 106.5,32.5C 106.5,32.8333 106.5,33.1667 106.5,33.5C 104.821,33.7148 103.821,33.0481 103.5,31.5 Z"/></g>
<g><path style="opacity:0.078" fill="#d2d3d4" d="M 129.5,31.5 C 130.167,31.5 130.833,31.5 131.5,31.5C 131.5,32.1667 131.5,32.8333 131.5,33.5C 130.167,33.5 129.5,32.8333 129.5,31.5 Z"/></g>
<g><path style="opacity:0.012" fill="#b2b3b3" d="M 134.5,31.5 C 135.391,32.1098 136.391,32.4431 137.5,32.5C 138.833,33.1667 140.167,33.8333 141.5,34.5C 139.708,34.366 138.042,34.6993 136.5,35.5C 136.167,35.5 135.833,35.5 135.5,35.5C 135.611,34.8826 135.944,34.3826 136.5,34C 135.244,33.5831 134.577,32.7498 134.5,31.5 Z"/></g>
<g><path style="opacity:0.827" fill="#7c8d8a" d="M 155.5,29.5 C 157.371,29.8588 158.871,30.8588 160,32.5C 160.671,31.7476 161.504,31.4142 162.5,31.5C 162.842,32.3382 163.508,32.6716 164.5,32.5C 163.833,33.8333 162.833,34.8333 161.5,35.5C 161.672,34.5084 161.338,33.8417 160.5,33.5C 157.937,33.2687 156.27,31.9354 155.5,29.5 Z"/></g>
<g><path style="opacity:1" fill="#081111" d="M 176.5,30.5 C 177.1,31.9002 178.1,32.9002 179.5,33.5C 179.5,37.1667 179.5,40.8333 179.5,44.5C 179.167,44.5 178.833,44.5 178.5,44.5C 178.5,43.8333 178.5,43.1667 178.5,42.5C 178.5,40.1667 178.5,37.8333 178.5,35.5C 177.041,35.5674 175.708,35.2341 174.5,34.5C 175.167,33.1667 175.833,31.8333 176.5,30.5 Z"/></g>
<g><path style="opacity:1" fill="#151b1a" d="M 187.5,29.5 C 188.833,29.5 190.167,29.5 191.5,29.5C 192.441,31.0495 193.107,32.7162 193.5,34.5C 192.1,33.9002 191.1,32.9002 190.5,31.5C 189.5,31.5 188.5,31.5 187.5,31.5C 187.5,30.8333 187.5,30.1667 187.5,29.5 Z"/></g>
<g><path style="opacity:1" fill="#3e5855" d="M 205.5,31.5 C 207.042,32.3007 208.708,32.634 210.5,32.5C 210.5,32.8333 210.5,33.1667 210.5,33.5C 209.312,34.6843 208.145,34.6843 207,33.5C 206.536,34.0944 206.369,34.7611 206.5,35.5C 205.167,34.8333 204.167,33.8333 203.5,32.5C 204.492,32.6716 205.158,32.3382 205.5,31.5 Z"/></g>
<g><path style="opacity:0.988" fill="#788281" d="M 238.5,32.5 C 239.167,32.5 239.833,32.5 240.5,32.5C 241.15,34.4352 241.483,36.4352 241.5,38.5C 240.514,36.5739 239.514,34.5739 238.5,32.5 Z"/></g>
<g><path style="opacity:0.965" fill="#6c9591" d="M 238.5,29.5 C 241.608,29.3746 243.608,30.7079 244.5,33.5C 243.833,33.5 243.167,33.5 242.5,33.5C 241.833,33.1667 241.167,32.8333 240.5,32.5C 239.833,31.5 239.167,30.5 238.5,29.5 Z"/></g>
<g><path style="opacity:0.877" fill="#f7fbfb" d="M 62.5,31.5 C 62.5,31.8333 62.5,32.1667 62.5,32.5C 61.8347,34.6979 61.1681,37.0312 60.5,39.5C 59.52,36.9135 59.1866,34.2469 59.5,31.5C 60.6522,30.375 61.6522,30.375 62.5,31.5 Z"/></g>
<g><path style="opacity:0.184" fill="#b8b7b8" d="M 75.5,33.5 C 76.8333,33.5 78.1667,33.5 79.5,33.5C 79.7678,35.099 79.4345,36.4324 78.5,37.5C 77.4502,37.0954 77.4502,36.4288 78.5,35.5C 77.3984,34.8243 76.3984,34.1577 75.5,33.5 Z"/></g>
<g><path style="opacity:0.031" fill="#c1c0c1" d="M 116.5,32.5 C 116.5,32.8333 116.5,33.1667 116.5,33.5C 115.833,33.5 115.5,33.8333 115.5,34.5C 114.508,34.6716 113.842,34.3382 113.5,33.5C 114.391,32.8902 115.391,32.5569 116.5,32.5 Z"/></g>
<g><path style="opacity:1" fill="#0d1717" d="M 129.5,30.5 C 129.5,30.8333 129.5,31.1667 129.5,31.5C 129.5,32.8333 130.167,33.5 131.5,33.5C 131.768,35.099 131.434,36.4324 130.5,37.5C 130.218,36.2223 129.551,35.2223 128.5,34.5C 128.5,33.5 128.5,32.5 128.5,31.5C 128.5,30.8333 128.833,30.5 129.5,30.5 Z"/></g>
<g><path style="opacity:0.925" fill="#5c7675" d="M 153.5,29.5 C 154.167,29.5 154.833,29.5 155.5,29.5C 156.27,31.9354 157.937,33.2687 160.5,33.5C 160.027,34.9063 159.027,35.573 157.5,35.5C 156.495,37.7043 156.162,40.7043 156.5,44.5C 156.019,40.3991 155.019,36.3991 153.5,32.5C 154.239,32.631 154.906,32.4643 155.5,32C 154.619,31.2917 153.953,30.4584 153.5,29.5 Z"/></g>
<g><path style="opacity:0.867" fill="#7c7e7e" d="M 214.5,29.5 C 213.34,31.2027 214.007,31.8693 216.5,31.5C 213.914,32.4153 211.914,34.082 210.5,36.5C 210.5,35.5 210.5,34.5 210.5,33.5C 210.5,33.1667 210.5,32.8333 210.5,32.5C 211.167,32.5 211.5,32.1667 211.5,31.5C 211.973,30.0937 212.973,29.427 214.5,29.5 Z"/></g>
<g><path style="opacity:1" fill="#455351" d="M 224.5,31.5 C 226.455,31.7986 227.789,32.7986 228.5,34.5C 226.874,37.2457 226.207,40.2457 226.5,43.5C 225.224,40.9697 225.224,38.3031 226.5,35.5C 226.03,34.537 225.363,34.537 224.5,35.5C 224.5,34.1667 224.5,32.8333 224.5,31.5 Z"/></g>
<g><path style="opacity:1" fill="#545a5b" d="M 153.5,49.5 C 152.833,45.1667 152.167,40.8333 151.5,36.5C 150.167,36.5 148.833,36.5 147.5,36.5C 146.518,39.9619 146.185,43.6286 146.5,47.5C 145.355,43.6888 145.188,39.6888 146,35.5C 148.333,32.8333 150.667,32.8333 153,35.5C 153.499,40.1548 153.666,44.8215 153.5,49.5 Z"/></g>
<g><path style="opacity:0.914" fill="#233635" d="M 160.5,33.5 C 161.338,33.8417 161.672,34.5084 161.5,35.5C 161.672,36.4916 161.338,37.1583 160.5,37.5C 160.167,37.5 159.833,37.5 159.5,37.5C 158.778,37.9175 158.278,38.5842 158,39.5C 157.51,38.2068 157.343,36.8734 157.5,35.5C 159.027,35.573 160.027,34.9063 160.5,33.5 Z"/></g>
<g><path style="opacity:1" fill="#636865" d="M 190.5,31.5 C 191.1,32.9002 192.1,33.9002 193.5,34.5C 193.34,36.153 192.674,37.4863 191.5,38.5C 191.5,37.5 191.5,36.5 191.5,35.5C 189.05,35.298 186.717,35.6314 184.5,36.5C 184.5,35.8333 184.5,35.1667 184.5,34.5C 186.331,33.9478 187.997,33.9478 189.5,34.5C 190.386,33.675 190.719,32.675 190.5,31.5 Z"/></g>
<g><path style="opacity:1" fill="#203633" d="M 240.5,32.5 C 241.167,32.8333 241.833,33.1667 242.5,33.5C 242.833,34.8333 243.167,36.1667 243.5,37.5C 242.9,38.9002 241.9,39.9002 240.5,40.5C 240.833,39.8333 241.167,39.1667 241.5,38.5C 241.483,36.4352 241.15,34.4352 240.5,32.5 Z"/></g>
<g><path style="opacity:0.071" fill="#d7d9d8" d="M 32.5,35.5 C 32.8333,35.5 33.1667,35.5 33.5,35.5C 36.1667,35.5 38.8333,35.5 41.5,35.5C 41.5,36.5 41.5,37.5 41.5,38.5C 38.8333,38.5 36.1667,38.5 33.5,38.5C 33.1667,38.5 32.8333,38.5 32.5,38.5C 33.9516,37.6981 35.6183,37.1981 37.5,37C 35.6183,36.8019 33.9516,36.3019 32.5,35.5 Z"/></g>
<g><path style="opacity:1" fill="#3a645d" d="M 43.5,33.5 C 44.8333,33.5 45.5,34.1667 45.5,35.5C 45.5,37.1667 45.5,38.8333 45.5,40.5C 42.5,40.5 39.5,40.5 36.5,40.5C 38.2646,39.5386 40.2646,39.2053 42.5,39.5C 43.4614,37.7354 43.7947,35.7354 43.5,33.5 Z"/></g>
<g><path style="opacity:0.912" fill="#37746d" d="M 65.5,31.5 C 65.1936,34.3854 65.5269,37.0521 66.5,39.5C 67.1303,41.7071 68.4637,43.3738 70.5,44.5C 68.4176,44.528 66.5843,43.8613 65,42.5C 63.8512,39.6074 63.3512,36.6074 63.5,33.5C 64.1667,32.8333 64.8333,32.1667 65.5,31.5 Z"/></g>
<g><path style="opacity:1" fill="#182826" d="M 86.5,34.5 C 88.4832,34.1568 89.8166,34.8235 90.5,36.5C 88.8561,36.2865 87.3561,36.6198 86,37.5C 85.5045,39.4727 85.3379,41.4727 85.5,43.5C 84.5318,41.3926 84.1984,39.0593 84.5,36.5C 84.5,35.1667 85.1667,34.5 86.5,34.5 Z"/></g>
<g><path style="opacity:0.984" fill="#2d302f" d="M 86.5,34.5 C 88.1667,33.1667 89.8333,33.1667 91.5,34.5C 91.8333,35.5 92.5,36.1667 93.5,36.5C 93.5,36.8333 93.5,37.1667 93.5,37.5C 93.6602,39.1992 93.4935,40.8659 93,42.5C 92.79,40.9419 92.29,39.6085 91.5,38.5C 91.6716,37.5084 91.3382,36.8417 90.5,36.5C 89.8166,34.8235 88.4832,34.1568 86.5,34.5 Z"/></g>
<g><path style="opacity:1" fill="#545b59" d="M 106.5,33.5 C 108.722,33.178 110.556,33.8446 112,35.5C 112.499,40.1548 112.666,44.8215 112.5,49.5C 111.833,45.1667 111.167,40.8333 110.5,36.5C 110.167,36.5 109.833,36.5 109.5,36.5C 108.5,36.5 107.5,36.5 106.5,36.5C 106.5,35.8333 106.5,35.1667 106.5,34.5C 106.5,34.1667 106.5,33.8333 106.5,33.5 Z"/></g>
<g><path style="opacity:1" fill="#293b39" d="M 115.5,34.5 C 115.833,34.5 116.167,34.5 116.5,34.5C 118.144,34.2865 119.644,34.6198 121,35.5C 121.174,40.3514 121.674,45.0181 122.5,49.5C 122.5,50.1667 122.167,50.5 121.5,50.5C 120.549,49.0813 120.216,47.4147 120.5,45.5C 120.5,42.5 120.5,39.5 120.5,36.5C 119.5,36.5 118.5,36.5 117.5,36.5C 117.5,39.5 117.5,42.5 117.5,45.5C 116.691,43.7078 116.191,41.7078 116,39.5C 115.503,41.8098 115.337,44.1432 115.5,46.5C 114.274,42.633 114.274,38.633 115.5,34.5 Z"/></g>
<g><path style="opacity:1" fill="#051614" d="M 191.5,38.5 C 190.024,36.5682 188.357,36.2348 186.5,37.5C 185.833,37.5 185.5,37.8333 185.5,38.5C 185.167,38.5 184.833,38.5 184.5,38.5C 184.5,37.8333 184.5,37.1667 184.5,36.5C 186.717,35.6314 189.05,35.298 191.5,35.5C 191.5,36.5 191.5,37.5 191.5,38.5 Z"/></g>
<g><path style="opacity:1" fill="#0f1516" d="M 210.5,33.5 C 210.5,34.5 210.5,35.5 210.5,36.5C 209.203,38.3713 208.203,40.3713 207.5,42.5C 207.802,39.9407 207.468,37.6074 206.5,35.5C 206.369,34.7611 206.536,34.0944 207,33.5C 208.145,34.6843 209.312,34.6843 210.5,33.5 Z"/></g>
<g><path style="opacity:1" fill="#2e3533" d="M 219.5,34.5 C 220.467,35.8062 221.801,36.4729 223.5,36.5C 222.737,37.2679 221.737,37.7679 220.5,38C 221.448,38.4828 222.448,38.6495 223.5,38.5C 223.5,38.8333 223.5,39.1667 223.5,39.5C 221.901,39.7678 220.568,39.4345 219.5,38.5C 219.179,36.9519 218.179,36.2852 216.5,36.5C 217.5,35.8333 218.5,35.1667 219.5,34.5 Z"/></g>
<g><path style="opacity:0.651" fill="#969798" d="M 222.5,32.5 C 223.434,33.5676 223.768,34.901 223.5,36.5C 221.801,36.4729 220.467,35.8062 219.5,34.5C 218.167,34.5 216.833,34.5 215.5,34.5C 217.863,32.9983 220.03,33.3316 222,35.5C 222.483,34.552 222.649,33.552 222.5,32.5 Z"/></g>
<g><path style="opacity:1" fill="#040d0a" d="M 221.5,30.5 C 222.609,30.5569 223.609,30.8902 224.5,31.5C 224.5,32.8333 224.5,34.1667 224.5,35.5C 224.737,36.791 224.404,37.791 223.5,38.5C 222.448,38.6495 221.448,38.4828 220.5,38C 221.737,37.7679 222.737,37.2679 223.5,36.5C 223.768,34.901 223.434,33.5676 222.5,32.5C 222.082,31.7784 221.416,31.2784 220.5,31C 220.728,30.6012 221.062,30.4346 221.5,30.5 Z"/></g>
<g><path style="opacity:1" fill="#364040" d="M 55.5,35.5 C 55.8333,35.5 56.1667,35.5 56.5,35.5C 53.1667,36.1667 49.8333,36.8333 46.5,37.5C 46.5,38.5 46.5,39.5 46.5,40.5C 50.4425,40.8746 54.1091,41.8746 57.5,43.5C 54.9455,42.612 52.2788,42.2786 49.5,42.5C 48.5,42.5 47.5,42.5 46.5,42.5C 46.1667,42.5 45.8333,42.5 45.5,42.5C 44.1667,42.5 42.8333,42.5 41.5,42.5C 42.8333,41.8333 44.1667,41.1667 45.5,40.5C 45.5,38.8333 45.5,37.1667 45.5,35.5C 45.8333,35.5 46.1667,35.5 46.5,35.5C 49.2877,34.7704 52.2877,34.7704 55.5,35.5 Z"/></g>
<g><path style="opacity:0.975" fill="#080909" d="M 56.5,35.5 C 57.1667,37.1667 57.8333,38.8333 58.5,40.5C 58.5,40.8333 58.5,41.1667 58.5,41.5C 58.6716,42.4916 58.3382,43.1583 57.5,43.5C 54.1091,41.8746 50.4425,40.8746 46.5,40.5C 49.8333,40.5 53.1667,40.5 56.5,40.5C 56.7373,39.209 56.404,38.209 55.5,37.5C 52.8333,37.5 50.1667,37.5 47.5,37.5C 47.1667,37.5 46.8333,37.5 46.5,37.5C 49.8333,36.8333 53.1667,36.1667 56.5,35.5 Z"/></g>
<g><path style="opacity:0.831" fill="#606a69" d="M 100.5,31.5 C 102.879,36.8403 102.879,42.1736 100.5,47.5C 100.666,43.1539 100.499,38.8206 100,34.5C 99.8227,38.3563 99.3227,42.023 98.5,45.5C 98.6646,42.4816 98.498,39.4816 98,36.5C 97.8138,39.0356 97.3138,41.369 96.5,43.5C 96.6323,40.4299 96.299,37.4299 95.5,34.5C 95.8333,34.5 96.1667,34.5 96.5,34.5C 96.56,35.0431 96.8933,35.3764 97.5,35.5C 98.0568,33.6684 99.0568,32.3351 100.5,31.5 Z"/></g>
<g><path style="opacity:1" fill="#3c4342" d="M 202.5,34.5 C 197.959,34.3309 197.626,34.9975 201.5,36.5C 199.369,37.1687 197.369,37.8354 195.5,38.5C 194.478,37.1083 194.811,35.775 196.5,34.5C 198.643,33.2463 200.643,33.2463 202.5,34.5 Z"/></g>
<g><path style="opacity:0.6" fill="#999a9c" d="M 231.5,34.5 C 231.461,35.5832 231.127,36.5832 230.5,37.5C 232.743,38.4742 235.076,38.8076 237.5,38.5C 237.833,38.5 238.167,38.5 238.5,38.5C 235.696,39.6378 232.696,39.8045 229.5,39C 228.833,37.143 229.5,35.643 231.5,34.5 Z"/></g>
<g><path style="opacity:1" fill="#1a2729" d="M 34.5,33.5 C 35.1667,33.5 35.8333,33.5 36.5,33.5C 38.8333,33.5 41.1667,33.5 43.5,33.5C 43.7947,35.7354 43.4614,37.7354 42.5,39.5C 42.5,38.8333 42.1667,38.5 41.5,38.5C 41.5,37.5 41.5,36.5 41.5,35.5C 39.7715,34.7369 37.4382,34.0703 34.5,33.5 Z"/></g>
<g><path style="opacity:0.905" fill="#1a2423" d="M 157.5,35.5 C 157.343,36.8734 157.51,38.2068 158,39.5C 158.278,38.5842 158.778,37.9175 159.5,37.5C 159.06,41.1785 159.727,44.5118 161.5,47.5C 160.5,47.5 159.5,47.5 158.5,47.5C 155.993,47.3678 155.326,46.3678 156.5,44.5C 156.162,40.7043 156.495,37.7043 157.5,35.5 Z"/></g>
<g><path style="opacity:0.98" fill="#282b2c" d="M 172.5,38.5 C 169.753,38.8134 167.086,38.48 164.5,37.5C 165.193,36.4822 165.859,35.4822 166.5,34.5C 169.709,32.9272 172.043,33.9272 173.5,37.5C 173.376,38.1067 173.043,38.44 172.5,38.5 Z"/></g>
<g><path style="opacity:1" fill="#374746" d="M 174.5,34.5 C 175.708,35.2341 177.041,35.5674 178.5,35.5C 178.5,37.8333 178.5,40.1667 178.5,42.5C 177.833,42.5 177.167,42.5 176.5,42.5C 177.511,40.5976 177.678,38.5976 177,36.5C 176.79,38.0581 176.29,39.3915 175.5,40.5C 175.483,38.4352 175.15,36.4352 174.5,34.5 Z"/></g>
<g><path style="opacity:0.99" fill="#100f10" d="M 202.5,34.5 C 203.167,34.5 203.5,34.8333 203.5,35.5C 203.5,36.5 203.5,37.5 203.5,38.5C 200.833,38.5 198.167,38.5 195.5,38.5C 197.369,37.8354 199.369,37.1687 201.5,36.5C 197.626,34.9975 197.959,34.3309 202.5,34.5 Z"/></g>
<g><path style="opacity:0.976" fill="#222526" d="M 237.5,34.5 C 237.5,35.8333 237.5,37.1667 237.5,38.5C 235.076,38.8076 232.743,38.4742 230.5,37.5C 231.127,36.5832 231.461,35.5832 231.5,34.5C 233.389,33.2584 235.389,33.2584 237.5,34.5 Z"/></g>
<g><path style="opacity:0.894" fill="#726e70" d="M 237.5,34.5 C 239.138,35.7046 239.471,37.0379 238.5,38.5C 238.167,38.5 237.833,38.5 237.5,38.5C 237.5,37.1667 237.5,35.8333 237.5,34.5 Z"/></g>
<g><path style="opacity:0.541" fill="#abd0cd" d="M 245.5,34.5 C 247.426,36.6265 247.426,38.9599 245.5,41.5C 245.5,39.1667 245.5,36.8333 245.5,34.5 Z"/></g>
<g><path style="opacity:0.982" fill="#061011" d="M 33.5,38.5 C 36.1667,38.5 38.8333,38.5 41.5,38.5C 42.1667,38.5 42.5,38.8333 42.5,39.5C 40.2646,39.2053 38.2646,39.5386 36.5,40.5C 35.8333,40.5 35.1667,40.5 34.5,40.5C 33.6618,40.1583 33.3284,39.4916 33.5,38.5 Z"/></g>
<g><path style="opacity:0.925" fill="#4d827a" d="M 90.5,36.5 C 91.3382,36.8417 91.6716,37.5084 91.5,38.5C 90.8501,38.1961 90.1835,37.8627 89.5,37.5C 88.2857,39.8587 88.2857,42.192 89.5,44.5C 88.0413,44.5674 86.7079,44.2341 85.5,43.5C 85.3379,41.4727 85.5045,39.4727 86,37.5C 87.3561,36.6198 88.8561,36.2865 90.5,36.5 Z"/></g>
<g><path style="opacity:1" fill="#0f3132" d="M 128.5,31.5 C 128.5,32.5 128.5,33.5 128.5,34.5C 127.518,37.9619 127.185,41.6286 127.5,45.5C 127.167,45.5 126.833,45.5 126.5,45.5C 126.806,42.6146 126.473,39.9479 125.5,37.5C 125.232,35.901 125.566,34.5676 126.5,33.5C 127.167,32.8333 127.833,32.1667 128.5,31.5 Z"/></g>
<g><path style="opacity:0.967" fill="#256c64" d="M 147.5,36.5 C 148.833,36.5 150.167,36.5 151.5,36.5C 151.5,36.8333 151.5,37.1667 151.5,37.5C 149.631,39.6353 148.964,42.3019 149.5,45.5C 147.612,43.0122 146.945,40.0122 147.5,36.5 Z"/></g>
<g><path style="opacity:0.078" fill="#bcbdc0" d="M 166.5,34.5 C 165.859,35.4822 165.193,36.4822 164.5,37.5C 167.086,38.48 169.753,38.8134 172.5,38.5C 169.713,39.4767 166.713,39.81 163.5,39.5C 162.916,36.715 163.916,35.0483 166.5,34.5 Z"/></g>
<g><path style="opacity:1" fill="#143230" d="M 184.5,38.5 C 184.833,38.5 185.167,38.5 185.5,38.5C 184.99,41.3878 185.656,43.7211 187.5,45.5C 187.5,46.8333 187.5,48.1667 187.5,49.5C 186.833,49.5 186.167,49.5 185.5,49.5C 185.5,48.8333 185.5,48.1667 185.5,47.5C 184.597,44.6085 184.264,41.6085 184.5,38.5 Z"/></g>
<g><path style="opacity:0.155" fill="#cdcccc" d="M 203.5,35.5 C 204.72,37.0496 204.72,38.7163 203.5,40.5C 202.833,40.5 202.167,40.5 201.5,40.5C 199.5,39.8333 197.5,39.1667 195.5,38.5C 198.167,38.5 200.833,38.5 203.5,38.5C 203.5,37.5 203.5,36.5 203.5,35.5 Z"/></g>
<g><path style="opacity:1" fill="#3d7e78" d="M 242.5,33.5 C 243.167,33.5 243.833,33.5 244.5,33.5C 245.167,33.5 245.5,33.8333 245.5,34.5C 245.5,36.8333 245.5,39.1667 245.5,41.5C 245.5,42.1667 245.167,42.5 244.5,42.5C 243.833,42.5 243.167,42.5 242.5,42.5C 243.301,40.9582 243.634,39.2915 243.5,37.5C 243.167,36.1667 242.833,34.8333 242.5,33.5 Z"/></g>
<g><path style="opacity:0.453" fill="#808181" d="M 46.5,37.5 C 46.8333,37.5 47.1667,37.5 47.5,37.5C 48.3339,38.7479 49.6672,39.4146 51.5,39.5C 53.3328,39.4146 54.6661,38.7479 55.5,37.5C 56.404,38.209 56.7373,39.209 56.5,40.5C 53.1667,40.5 49.8333,40.5 46.5,40.5C 46.5,39.5 46.5,38.5 46.5,37.5 Z M 47.5,37.5 C 50.1667,37.5 52.8333,37.5 55.5,37.5C 54.6661,38.7479 53.3328,39.4146 51.5,39.5C 49.6672,39.4146 48.3339,38.7479 47.5,37.5 Z"/></g>
<g><path style="opacity:0.872" fill="#d2d4d4" d="M 59.5,31.5 C 59.1866,34.2469 59.52,36.9135 60.5,39.5C 61.1681,37.0312 61.8347,34.6979 62.5,32.5C 62.5,32.8333 62.5,33.1667 62.5,33.5C 61.8851,37.9912 62.8851,41.9912 65.5,45.5C 63.0673,45.7856 63.0673,46.4523 65.5,47.5C 65.5,47.8333 65.5,48.1667 65.5,48.5C 62.1346,47.1347 59.8013,44.8014 58.5,41.5C 58.5,41.1667 58.5,40.8333 58.5,40.5C 58.19,37.2869 58.5233,34.2869 59.5,31.5 Z"/></g>
<g><path style="opacity:0.675" fill="#5a5859" d="M 79.5,33.5 C 80.5,34.8333 81.5,34.8333 82.5,33.5C 81.4222,36.4021 80.7556,39.4021 80.5,42.5C 79.8333,41.1667 79.1667,39.8333 78.5,38.5C 78.5,38.1667 78.5,37.8333 78.5,37.5C 79.4345,36.4324 79.7678,35.099 79.5,33.5 Z"/></g>
<g><path style="opacity:0.996" fill="#06211d" d="M 106.5,34.5 C 106.5,35.1667 106.5,35.8333 106.5,36.5C 106.19,39.7131 106.523,42.7131 107.5,45.5C 107.672,46.4916 107.338,47.1583 106.5,47.5C 105.57,43.6002 105.237,39.6002 105.5,35.5C 105.5,34.8333 105.833,34.5 106.5,34.5 Z"/></g>
<g><path style="opacity:0.737" fill="#616564" d="M 116.5,34.5 C 116.5,34.1667 116.5,33.8333 116.5,33.5C 118.467,33.2606 120.301,33.5939 122,34.5C 122.499,39.4889 122.666,44.4889 122.5,49.5C 121.674,45.0181 121.174,40.3514 121,35.5C 119.644,34.6198 118.144,34.2865 116.5,34.5 Z"/></g>
<g><path style="opacity:0.833" fill="#333f41" d="M 125.5,37.5 C 126.473,39.9479 126.806,42.6146 126.5,45.5C 126.5,46.1667 126.833,46.5 127.5,46.5C 127.5,46.8333 127.5,47.1667 127.5,47.5C 125.598,44.6627 124.931,41.3293 125.5,37.5 Z"/></g>
<g><path style="opacity:0.433" fill="#799d9d" d="M 151.5,37.5 C 151.5,40.1667 151.5,42.8333 151.5,45.5C 150.833,45.5 150.167,45.5 149.5,45.5C 148.964,42.3019 149.631,39.6353 151.5,37.5 Z"/></g>
<g><path style="opacity:0.688" fill="#6a6e6d" d="M 179.5,33.5 C 180.163,35.6413 180.497,37.9746 180.5,40.5C 180.471,43.2695 179.805,45.6028 178.5,47.5C 179.11,46.609 179.443,45.609 179.5,44.5C 179.5,40.8333 179.5,37.1667 179.5,33.5 Z"/></g>
<g><path style="opacity:0.886" fill="#383a39" d="M 186.5,37.5 C 188.357,36.2348 190.024,36.5682 191.5,38.5C 191.5,39.8333 191.5,41.1667 191.5,42.5C 191.672,43.4916 191.338,44.1583 190.5,44.5C 190.5,43.8333 190.167,43.5 189.5,43.5C 189.5,42.1667 189.5,40.8333 189.5,39.5C 189.5,38.1667 188.833,37.5 187.5,37.5C 187.167,37.5 186.833,37.5 186.5,37.5 Z"/></g>
<g><path style="opacity:1" fill="#2b4b49" d="M 215.5,37.5 C 215.5,39.8333 215.5,42.1667 215.5,44.5C 216.5,44.5 217.5,44.5 218.5,44.5C 218.833,44.5 219.167,44.5 219.5,44.5C 218.5,45.1667 217.5,45.8333 216.5,46.5C 214.5,46.5 213.5,45.5 213.5,43.5C 214.167,41.5 214.833,39.5 215.5,37.5 Z"/></g>
<g><path style="opacity:1" fill="#0b2424" d="M 141.5,34.5 C 141.737,35.791 141.404,36.791 140.5,37.5C 139.791,36.596 138.791,36.2627 137.5,36.5C 137.5,39.5 137.5,42.5 137.5,45.5C 136.521,42.3752 136.187,39.0419 136.5,35.5C 138.042,34.6993 139.708,34.366 141.5,34.5 Z"/></g>
<g><path style="opacity:1" fill="#44847c" d="M 140.5,37.5 C 140.5,40.1667 140.5,42.8333 140.5,45.5C 139.833,45.5 139.167,45.5 138.5,45.5C 138.167,45.5 137.833,45.5 137.5,45.5C 137.5,42.5 137.5,39.5 137.5,36.5C 138.791,36.2627 139.791,36.596 140.5,37.5 Z"/></g>
<g><path style="opacity:0.89" fill="#667172" d="M 141.5,34.5 C 143.017,36.4621 143.684,38.7954 143.5,41.5C 143.493,43.3693 143.16,45.036 142.5,46.5C 142.664,43.8127 142.497,41.146 142,38.5C 141.814,41.0356 141.314,43.369 140.5,45.5C 140.5,42.8333 140.5,40.1667 140.5,37.5C 141.404,36.791 141.737,35.791 141.5,34.5 Z"/></g>
<g><path style="opacity:0.959" fill="#131917" d="M 176.5,42.5 C 175.5,42.5 174.5,42.5 173.5,42.5C 172.167,42.5 170.833,42.5 169.5,42.5C 168.167,42.5 166.833,42.5 165.5,42.5C 166.167,41.8333 166.833,41.1667 167.5,40.5C 170.167,40.5 172.833,40.5 175.5,40.5C 176.29,39.3915 176.79,38.0581 177,36.5C 177.678,38.5976 177.511,40.5976 176.5,42.5 Z"/></g>
<g><path style="opacity:1" fill="#2a726a" d="M 186.5,37.5 C 186.833,37.5 187.167,37.5 187.5,37.5C 187.5,40.1667 187.5,42.8333 187.5,45.5C 185.656,43.7211 184.99,41.3878 185.5,38.5C 185.5,37.8333 185.833,37.5 186.5,37.5 Z"/></g>
<g><path style="opacity:0.947" fill="#383b3a" d="M 206.5,35.5 C 207.468,37.6074 207.802,39.9407 207.5,42.5C 207.167,42.5 206.833,42.5 206.5,42.5C 204.866,41.8389 203.033,41.5056 201,41.5C 198.705,41.5465 196.871,42.2132 195.5,43.5C 194.596,42.791 194.263,41.791 194.5,40.5C 196.833,40.5 199.167,40.5 201.5,40.5C 202.167,40.5 202.833,40.5 203.5,40.5C 204.5,40.5 205.5,40.5 206.5,40.5C 206.5,38.8333 206.5,37.1667 206.5,35.5 Z"/></g>
<g><path style="opacity:1" fill="#2b3737" d="M 215.5,34.5 C 216.833,34.5 218.167,34.5 219.5,34.5C 218.5,35.1667 217.5,35.8333 216.5,36.5C 215.833,36.5 215.5,36.8333 215.5,37.5C 214.833,39.5 214.167,41.5 213.5,43.5C 212.371,41.3718 212.204,39.0385 213,36.5C 213.708,35.6195 214.542,34.9528 215.5,34.5 Z"/></g>
<g><path style="opacity:0.908" fill="#508b83" d="M 216.5,36.5 C 218.179,36.2852 219.179,36.9519 219.5,38.5C 217.195,40.0445 216.862,42.0445 218.5,44.5C 217.5,44.5 216.5,44.5 215.5,44.5C 215.5,42.1667 215.5,39.8333 215.5,37.5C 215.5,36.8333 215.833,36.5 216.5,36.5 Z"/></g>
<g><path style="opacity:0.949" fill="#1b2221" d="M 243.5,37.5 C 243.634,39.2915 243.301,40.9582 242.5,42.5C 241.5,42.5 240.5,42.5 239.5,42.5C 237.833,42.5 236.167,42.5 234.5,42.5C 232.833,42.5 231.167,42.5 229.5,42.5C 228.957,42.44 228.624,42.1067 228.5,41.5C 232.445,40.5091 236.445,40.1758 240.5,40.5C 241.9,39.9002 242.9,38.9002 243.5,37.5 Z"/></g>
<g><path style="opacity:1" fill="#376d66" d="M 34.5,40.5 C 35.1667,40.5 35.8333,40.5 36.5,40.5C 36.5,41.8333 36.5,43.1667 36.5,44.5C 34.8235,43.8166 34.1568,42.4832 34.5,40.5 Z"/></g>
<g><path style="opacity:0.063" fill="#d2dede" d="M 36.5,40.5 C 39.5,40.5 42.5,40.5 45.5,40.5C 44.1667,41.1667 42.8333,41.8333 41.5,42.5C 40.2209,43.968 38.5542,44.6347 36.5,44.5C 36.5,43.1667 36.5,41.8333 36.5,40.5 Z"/></g>
<g><path style="opacity:0.078" fill="#c7c7c7" d="M 78.5,38.5 C 78.8432,40.4832 78.1765,41.8166 76.5,42.5C 76.1667,42.5 75.8333,42.5 75.5,42.5C 76.6588,41.2597 77.6588,39.9264 78.5,38.5 Z"/></g>
<g><path style="opacity:1" fill="#3f7a75" d="M 128.5,34.5 C 129.551,35.2223 130.218,36.2223 130.5,37.5C 130.5,40.1667 130.5,42.8333 130.5,45.5C 129.5,45.5 128.5,45.5 127.5,45.5C 127.185,41.6286 127.518,37.9619 128.5,34.5 Z"/></g>
<g><path style="opacity:0.075" fill="#aed7d5" d="M 187.5,37.5 C 188.833,37.5 189.5,38.1667 189.5,39.5C 188.539,41.2646 188.205,43.2646 188.5,45.5C 188.167,45.5 187.833,45.5 187.5,45.5C 187.5,42.8333 187.5,40.1667 187.5,37.5 Z"/></g>
<g><path style="opacity:0.971" fill="#07120f" d="M 206.5,42.5 C 205.833,42.5 205.167,42.5 204.5,42.5C 203.5,42.5 202.5,42.5 201.5,42.5C 200.5,42.5 199.5,42.5 198.5,42.5C 197.391,42.5569 196.391,42.8902 195.5,43.5C 196.871,42.2132 198.705,41.5465 201,41.5C 203.033,41.5056 204.866,41.8389 206.5,42.5 Z"/></g>
<g><path style="opacity:0.855" fill="#838483" d="M 93.5,37.5 C 94.9171,40.3404 94.5838,43.007 92.5,45.5C 92.5912,43.3023 91.9245,42.9689 90.5,44.5C 91.1495,42.5648 91.4828,40.5648 91.5,38.5C 92.29,39.6085 92.79,40.9419 93,42.5C 93.4935,40.8659 93.6602,39.1992 93.5,37.5 Z"/></g>
<g><path style="opacity:0.604" fill="#696f71" d="M 105.5,35.5 C 105.237,39.6002 105.57,43.6002 106.5,47.5C 105.206,45.9522 104.539,43.9522 104.5,41.5C 104.505,39.3035 104.838,37.3035 105.5,35.5 Z"/></g>
<g><path style="opacity:0.761" fill="#3d7f77" d="M 106.5,36.5 C 107.5,36.5 108.5,36.5 109.5,36.5C 110.055,40.0122 109.388,43.0122 107.5,45.5C 106.523,42.7131 106.19,39.7131 106.5,36.5 Z"/></g>
<g><path style="opacity:0.878" fill="#4f8b86" d="M 120.5,45.5 C 119.833,45.5 119.167,45.5 118.5,45.5C 118.167,45.5 117.833,45.5 117.5,45.5C 117.5,42.5 117.5,39.5 117.5,36.5C 118.5,36.5 119.5,36.5 120.5,36.5C 120.5,39.5 120.5,42.5 120.5,45.5 Z"/></g>
<g><path style="opacity:0.867" fill="#263131" d="M 135.5,35.5 C 135.833,35.5 136.167,35.5 136.5,35.5C 136.187,39.0419 136.521,42.3752 137.5,45.5C 137.833,45.5 138.167,45.5 138.5,45.5C 138.833,46.1667 139.167,46.8333 139.5,47.5C 138.833,48.1667 138.167,48.8333 137.5,49.5C 135.763,45.066 135.096,40.3993 135.5,35.5 Z"/></g>
<g><path style="opacity:0.929" fill="#253531" d="M 142.5,46.5 C 142.557,47.609 142.89,48.609 143.5,49.5C 142.167,49.5 141.5,50.1667 141.5,51.5C 140.833,51.5 140.167,51.5 139.5,51.5C 139.5,51.1667 139.5,50.8333 139.5,50.5C 139.5,49.5 139.5,48.5 139.5,47.5C 139.167,46.8333 138.833,46.1667 138.5,45.5C 139.167,45.5 139.833,45.5 140.5,45.5C 141.314,43.369 141.814,41.0356 142,38.5C 142.497,41.146 142.664,43.8127 142.5,46.5 Z"/></g>
<g><path style="opacity:0.102" fill="#c3ede7" d="M 239.5,43.5 C 239.5,43.1667 239.5,42.8333 239.5,42.5C 240.5,42.5 241.5,42.5 242.5,42.5C 243.167,42.5 243.833,42.5 244.5,42.5C 244.5,43.1667 244.5,43.8333 244.5,44.5C 243.609,43.8902 242.609,43.5569 241.5,43.5C 240.833,43.5 240.167,43.5 239.5,43.5 Z"/></g>
<g><path style="opacity:1" fill="#112422" d="M 62.5,33.5 C 62.8333,33.5 63.1667,33.5 63.5,33.5C 63.3512,36.6074 63.8512,39.6074 65,42.5C 66.5843,43.8613 68.4176,44.528 70.5,44.5C 71.1667,45.1667 71.8333,45.8333 72.5,46.5C 70.0504,46.702 67.717,46.3686 65.5,45.5C 62.8851,41.9912 61.8851,37.9912 62.5,33.5 Z"/></g>
<g><path style="opacity:1" fill="#151414" d="M 78.5,38.5 C 79.1667,39.8333 79.8333,41.1667 80.5,42.5C 80.2865,44.1439 80.6198,45.6439 81.5,47C 80.9056,47.4643 80.2389,47.631 79.5,47.5C 79.6716,46.5084 79.3382,45.8417 78.5,45.5C 77.791,44.596 76.791,44.2627 75.5,44.5C 75.8333,43.8333 76.1667,43.1667 76.5,42.5C 78.1765,41.8166 78.8432,40.4832 78.5,38.5 Z"/></g>
<g><path style="opacity:0.986" fill="#030e0e" d="M 151.5,36.5 C 152.167,40.8333 152.833,45.1667 153.5,49.5C 153.5,49.8333 153.5,50.1667 153.5,50.5C 152.833,50.5 152.167,50.5 151.5,50.5C 151.5,48.8333 151.5,47.1667 151.5,45.5C 151.5,42.8333 151.5,40.1667 151.5,37.5C 151.5,37.1667 151.5,36.8333 151.5,36.5 Z"/></g>
<g><path style="opacity:0.922" fill="#2d3333" d="M 167.5,40.5 C 166.833,41.1667 166.167,41.8333 165.5,42.5C 165.5,42.8333 165.5,43.1667 165.5,43.5C 165.5,44.1667 165.167,44.5 164.5,44.5C 161.357,40.9574 162.357,39.6241 167.5,40.5 Z"/></g>
<g><path style="opacity:0.741" fill="#678783" d="M 165.5,43.5 C 165.5,43.1667 165.5,42.8333 165.5,42.5C 166.833,42.5 168.167,42.5 169.5,42.5C 169.5,43.1667 169.5,43.8333 169.5,44.5C 168.041,44.5674 166.708,44.2341 165.5,43.5 Z"/></g>
<g><path style="opacity:0.812" fill="#404d4f" d="M 184.5,36.5 C 184.5,37.1667 184.5,37.8333 184.5,38.5C 184.264,41.6085 184.597,44.6085 185.5,47.5C 184.213,46.1286 183.547,44.2953 183.5,42C 183.506,39.9674 183.839,38.134 184.5,36.5 Z"/></g>
<g><path style="opacity:0.859" fill="#839b97" d="M 198.5,42.5 C 199.5,42.5 200.5,42.5 201.5,42.5C 201.328,43.4916 201.662,44.1583 202.5,44.5C 202.44,45.0431 202.107,45.3764 201.5,45.5C 199.787,45.1207 198.787,44.1207 198.5,42.5 Z"/></g>
<g><path style="opacity:0.992" fill="#555b59" d="M 210.5,36.5 C 210.342,39.9023 210.676,43.2356 211.5,46.5C 209.482,45.0674 207.815,45.4008 206.5,47.5C 206.5,46.1667 205.833,45.5 204.5,45.5C 204.158,44.6618 203.492,44.3284 202.5,44.5C 203.167,43.8333 203.833,43.1667 204.5,42.5C 205.167,42.5 205.833,42.5 206.5,42.5C 206.833,42.5 207.167,42.5 207.5,42.5C 208.203,40.3713 209.203,38.3713 210.5,36.5 Z"/></g>
<g><path style="opacity:0.937" fill="#575958" d="M 223.5,39.5 C 224.451,40.9187 224.784,42.5853 224.5,44.5C 223.167,44.5 221.833,44.5 220.5,44.5C 221.209,43.596 222.209,43.2627 223.5,43.5C 223.5,42.1667 223.5,40.8333 223.5,39.5 Z"/></g>
<g><path style="opacity:1" fill="#42524e" d="M 229.5,42.5 C 231.167,42.5 232.833,42.5 234.5,42.5C 234.973,43.9063 235.973,44.573 237.5,44.5C 237.842,45.3382 238.508,45.6716 239.5,45.5C 235.017,48.5627 231.684,47.5627 229.5,42.5 Z"/></g>
<g><path style="opacity:0.78" fill="#5b8781" d="M 241.5,43.5 C 242.609,43.5569 243.609,43.8902 244.5,44.5C 246.273,45.3143 246.773,46.6476 246,48.5C 243.508,50.4971 240.675,51.4971 237.5,51.5C 237.5,50.8333 237.833,50.5 238.5,50.5C 243.629,49.7668 244.629,47.4334 241.5,43.5 Z"/></g>
<g><path style="opacity:1" fill="#141818" d="M 41.5,42.5 C 42.8333,42.5 44.1667,42.5 45.5,42.5C 45.5,43.1667 45.1667,43.5 44.5,43.5C 43.5,43.5 42.5,43.5 41.5,43.5C 41.5,44.5 41.5,45.5 41.5,46.5C 39.1667,46.5 36.8333,46.5 34.5,46.5C 35.1667,45.8333 35.8333,45.1667 36.5,44.5C 38.5542,44.6347 40.2209,43.968 41.5,42.5 Z"/></g>
<g><path style="opacity:0.618" fill="#549089" d="M 46.5,42.5 C 47.5,42.5 48.5,42.5 49.5,42.5C 49.5,45.5 49.5,48.5 49.5,51.5C 48.5,51.5 47.5,51.5 46.5,51.5C 46.5,51.1667 46.5,50.8333 46.5,50.5C 46.5,47.8333 46.5,45.1667 46.5,42.5 Z"/></g>
<g><path style="opacity:0.976" fill="#414c4c" d="M 84.5,36.5 C 84.1984,39.0593 84.5318,41.3926 85.5,43.5C 86.7079,44.2341 88.0413,44.5674 89.5,44.5C 89.8333,44.5 90.1667,44.5 90.5,44.5C 91.9245,42.9689 92.5912,43.3023 92.5,45.5C 89.5146,48.1448 86.6812,47.8115 84,44.5C 83.1993,41.633 83.3659,38.9664 84.5,36.5 Z"/></g>
<g><path style="opacity:0.951" fill="#030c09" d="M 110.5,36.5 C 111.167,40.8333 111.833,45.1667 112.5,49.5C 114.167,49.5 115.833,49.5 117.5,49.5C 118.167,49.5 118.5,49.8333 118.5,50.5C 115.833,50.5 113.167,50.5 110.5,50.5C 110.5,49.5 110.5,48.5 110.5,47.5C 110.5,43.8333 110.5,40.1667 110.5,36.5 Z"/></g>
<g><path style="opacity:1" fill="#071717" d="M 147.5,36.5 C 146.945,40.0122 147.612,43.0122 149.5,45.5C 149.5,46.8333 148.833,47.5 147.5,47.5C 147.167,47.5 146.833,47.5 146.5,47.5C 146.185,43.6286 146.518,39.9619 147.5,36.5 Z"/></g>
<g><path style="opacity:1" fill="#454a48" d="M 159.5,37.5 C 159.833,37.5 160.167,37.5 160.5,37.5C 160.022,41.3375 161.022,44.6709 163.5,47.5C 162.833,47.5 162.167,47.5 161.5,47.5C 159.727,44.5118 159.06,41.1785 159.5,37.5 Z"/></g>
<g><path style="opacity:0.965" fill="#394647" d="M 165.5,43.5 C 166.708,44.2341 168.041,44.5674 169.5,44.5C 170.167,45.1667 170.833,45.8333 171.5,46.5C 168.617,47.8733 166.283,47.2066 164.5,44.5C 165.167,44.5 165.5,44.1667 165.5,43.5 Z"/></g>
<g><path style="opacity:0.933" fill="#636b6c" d="M 173.5,42.5 C 174.5,42.5 175.5,42.5 176.5,42.5C 177.167,42.5 177.833,42.5 178.5,42.5C 178.5,43.1667 178.5,43.8333 178.5,44.5C 177.167,44.8333 175.833,45.1667 174.5,45.5C 173.609,46.1098 172.609,46.4431 171.5,46.5C 170.833,45.8333 170.167,45.1667 169.5,44.5C 171.153,44.3404 172.486,43.6737 173.5,42.5 Z"/></g>
<g><path style="opacity:0.933" fill="#3a4747" d="M 198.5,42.5 C 198.787,44.1207 199.787,45.1207 201.5,45.5C 202.107,45.3764 202.44,45.0431 202.5,44.5C 203.492,44.3284 204.158,44.6618 204.5,45.5C 203.833,45.5 203.5,45.8333 203.5,46.5C 201.177,47.5821 198.843,47.4154 196.5,46C 195.748,45.3292 195.414,44.4959 195.5,43.5C 196.391,42.8902 197.391,42.5569 198.5,42.5 Z"/></g>
<g><path style="opacity:1" fill="#0a100f" d="M 226.5,43.5 C 226.5,43.8333 226.5,44.1667 226.5,44.5C 226.414,45.4959 226.748,46.3292 227.5,47C 226.906,47.4643 226.239,47.631 225.5,47.5C 224.833,46.8333 224.167,46.1667 223.5,45.5C 222.209,45.7373 221.209,45.404 220.5,44.5C 221.833,44.5 223.167,44.5 224.5,44.5C 224.784,42.5853 224.451,40.9187 223.5,39.5C 223.5,39.1667 223.5,38.8333 223.5,38.5C 224.404,37.791 224.737,36.791 224.5,35.5C 225.363,34.537 226.03,34.537 226.5,35.5C 225.224,38.3031 225.224,40.9697 226.5,43.5 Z"/></g>
<g><path style="opacity:0.984" fill="#1f312e" d="M 32.5,38.5 C 32.8333,38.5 33.1667,38.5 33.5,38.5C 33.3284,39.4916 33.6618,40.1583 34.5,40.5C 34.1568,42.4832 34.8235,43.8166 36.5,44.5C 35.8333,45.1667 35.1667,45.8333 34.5,46.5C 33.8333,46.5 33.1667,46.5 32.5,46.5C 32.5,43.8333 32.5,41.1667 32.5,38.5 Z"/></g>
<g><path style="opacity:0.129" fill="#d8d8d8" d="M 44.5,43.5 C 44.5,45.1667 44.5,46.8333 44.5,48.5C 41.272,47.5863 37.9387,47.2529 34.5,47.5C 33.5084,47.6716 32.8417,47.3382 32.5,46.5C 33.1667,46.5 33.8333,46.5 34.5,46.5C 36.8333,46.5 39.1667,46.5 41.5,46.5C 41.5,45.5 41.5,44.5 41.5,43.5C 42.5,43.5 43.5,43.5 44.5,43.5 Z"/></g>
<g><path style="opacity:1" fill="#3a3b39" d="M 58.5,41.5 C 59.8013,44.8014 62.1346,47.1347 65.5,48.5C 66.1667,48.5 66.5,48.8333 66.5,49.5C 65.5084,49.3284 64.8417,49.6618 64.5,50.5C 61.1667,49.1667 58.8333,46.8333 57.5,43.5C 58.3382,43.1583 58.6716,42.4916 58.5,41.5 Z"/></g>
<g><path style="opacity:0.894" fill="#3c3f3f" d="M 75.5,42.5 C 75.8333,42.5 76.1667,42.5 76.5,42.5C 76.1667,43.1667 75.8333,43.8333 75.5,44.5C 75.1667,45.5 74.5,46.1667 73.5,46.5C 73.1667,46.5 72.8333,46.5 72.5,46.5C 71.8333,45.8333 71.1667,45.1667 70.5,44.5C 72.5138,44.6085 74.1805,43.9418 75.5,42.5 Z"/></g>
<g><path style="opacity:1" fill="#112121" d="M 98.5,45.5 C 98.0623,46.5063 97.3957,46.5063 96.5,45.5C 96.5,45.1667 96.5,44.8333 96.5,44.5C 96.5,44.1667 96.5,43.8333 96.5,43.5C 97.3138,41.369 97.8138,39.0356 98,36.5C 98.498,39.4816 98.6646,42.4816 98.5,45.5 Z"/></g>
<g><path style="opacity:1" fill="#2a3434" d="M 131.5,33.5 C 132.163,35.6413 132.497,37.9746 132.5,40.5C 132.471,43.2695 131.805,45.6028 130.5,47.5C 129.791,46.596 128.791,46.2627 127.5,46.5C 126.833,46.5 126.5,46.1667 126.5,45.5C 126.833,45.5 127.167,45.5 127.5,45.5C 128.5,45.5 129.5,45.5 130.5,45.5C 130.5,42.8333 130.5,40.1667 130.5,37.5C 131.434,36.4324 131.768,35.099 131.5,33.5 Z"/></g>
<g><path style="opacity:1" fill="#2d3331" d="M 178.5,44.5 C 178.833,44.5 179.167,44.5 179.5,44.5C 179.443,45.609 179.11,46.609 178.5,47.5C 178.5,48.1667 178.5,48.8333 178.5,49.5C 177.849,48.9094 177.182,48.2427 176.5,47.5C 175.583,48.1272 174.583,48.4606 173.5,48.5C 174.11,47.609 174.443,46.609 174.5,45.5C 175.833,45.1667 177.167,44.8333 178.5,44.5 Z"/></g>
<g><path style="opacity:0.922" fill="#606565" d="M 219.5,44.5 C 219.833,44.5 220.167,44.5 220.5,44.5C 221.209,45.404 222.209,45.7373 223.5,45.5C 223.672,46.4916 223.338,47.1583 222.5,47.5C 220.5,47.1667 218.5,46.8333 216.5,46.5C 217.5,45.8333 218.5,45.1667 219.5,44.5 Z"/></g>
<g><path style="opacity:1" fill="#1c3d3a" d="M 45.5,42.5 C 45.8333,42.5 46.1667,42.5 46.5,42.5C 46.5,45.1667 46.5,47.8333 46.5,50.5C 46.1667,50.5 45.8333,50.5 45.5,50.5C 45.5,49.8333 45.1667,49.5 44.5,49.5C 44.5,49.1667 44.5,48.8333 44.5,48.5C 44.5,46.8333 44.5,45.1667 44.5,43.5C 45.1667,43.5 45.5,43.1667 45.5,42.5 Z"/></g>
<g><path style="opacity:0.635" fill="#e6e5e5" d="M 65.5,45.5 C 67.717,46.3686 70.0504,46.702 72.5,46.5C 72.8333,46.5 73.1667,46.5 73.5,46.5C 71.0521,47.4731 68.3854,47.8064 65.5,47.5C 63.0673,46.4523 63.0673,45.7856 65.5,45.5 Z"/></g>
<g><path style="opacity:0.042" fill="#e9eaea" d="M 75.5,44.5 C 76.791,44.2627 77.791,44.596 78.5,45.5C 77.1667,45.8333 77.1667,46.1667 78.5,46.5C 74.9816,48.9661 70.9816,49.9661 66.5,49.5C 66.5,48.8333 66.1667,48.5 65.5,48.5C 65.5,48.1667 65.5,47.8333 65.5,47.5C 68.3854,47.8064 71.0521,47.4731 73.5,46.5C 74.5,46.1667 75.1667,45.5 75.5,44.5 Z"/></g>
<g><path style="opacity:0.945" fill="#131b1b" d="M 100.5,47.5 C 99.9569,47.56 99.6236,47.8933 99.5,48.5C 101.743,49.4742 104.076,49.8076 106.5,49.5C 107.167,49.5 107.833,49.5 108.5,49.5C 105.038,50.4816 101.371,50.815 97.5,50.5C 97.5,50.1667 97.5,49.8333 97.5,49.5C 97.1667,48.1667 96.8333,46.8333 96.5,45.5C 97.3957,46.5063 98.0623,46.5063 98.5,45.5C 99.3227,42.023 99.8227,38.3563 100,34.5C 100.499,38.8206 100.666,43.1539 100.5,47.5 Z"/></g>
<g><path style="opacity:1" fill="#3a524c" d="M 109.5,36.5 C 109.833,36.5 110.167,36.5 110.5,36.5C 110.5,40.1667 110.5,43.8333 110.5,47.5C 109.167,47.5 108.5,48.1667 108.5,49.5C 107.833,49.5 107.167,49.5 106.5,49.5C 106.5,48.8333 106.5,48.1667 106.5,47.5C 107.338,47.1583 107.672,46.4916 107.5,45.5C 109.388,43.0122 110.055,40.0122 109.5,36.5 Z"/></g>
<g><path style="opacity:0.996" fill="#0f1f1e" d="M 117.5,45.5 C 117.833,45.5 118.167,45.5 118.5,45.5C 119.72,47.2837 119.72,48.9504 118.5,50.5C 118.5,49.8333 118.167,49.5 117.5,49.5C 117.218,48.2223 116.551,47.2223 115.5,46.5C 115.337,44.1432 115.503,41.8098 116,39.5C 116.191,41.7078 116.691,43.7078 117.5,45.5 Z"/></g>
<g><path style="opacity:0.031" fill="#dbdede" d="M 203.5,46.5 C 203.5,45.8333 203.833,45.5 204.5,45.5C 205.833,45.5 206.5,46.1667 206.5,47.5C 206.167,47.5 205.833,47.5 205.5,47.5C 205.158,46.6618 204.492,46.3284 203.5,46.5 Z"/></g>
<g><path style="opacity:1" fill="#091616" d="M 211.5,46.5 C 211.611,48.6477 210.944,48.981 209.5,47.5C 208.145,48.1882 207.145,49.1882 206.5,50.5C 205.375,49.6522 205.375,48.6522 206.5,47.5C 207.815,45.4008 209.482,45.0674 211.5,46.5 Z"/></g>
<g><path style="opacity:0.996" fill="#283533" d="M 239.5,43.5 C 240.167,43.5 240.833,43.5 241.5,43.5C 244.629,47.4334 243.629,49.7668 238.5,50.5C 238.158,49.6618 237.492,49.3284 236.5,49.5C 237.765,48.5207 239.099,47.5207 240.5,46.5C 240.376,45.8933 240.043,45.56 239.5,45.5C 238.508,45.6716 237.842,45.3382 237.5,44.5C 237.842,43.6618 238.508,43.3284 239.5,43.5 Z"/></g>
<g><path style="opacity:0.925" fill="#566362" d="M 80.5,42.5 C 81.3771,44.7278 82.7104,46.7278 84.5,48.5C 83.5084,48.3284 82.8417,48.6618 82.5,49.5C 80.5,50.1667 78.5,50.8333 76.5,51.5C 77.7888,50.3634 78.7888,49.0301 79.5,47.5C 80.2389,47.631 80.9056,47.4643 81.5,47C 80.6198,45.6439 80.2865,44.1439 80.5,42.5 Z"/></g>
<g><path style="opacity:1" fill="#283936" d="M 96.5,44.5 C 96.5,44.8333 96.5,45.1667 96.5,45.5C 96.8333,46.8333 97.1667,48.1667 97.5,49.5C 96.5,49.5 95.5,49.5 94.5,49.5C 94.5,48.8333 94.1667,48.5 93.5,48.5C 94.5116,47.1283 95.5116,45.795 96.5,44.5 Z"/></g>
<g><path style="opacity:0.929" fill="#494e4d" d="M 191.5,42.5 C 192.82,44.4632 194.154,46.4632 195.5,48.5C 194.508,48.3284 193.842,48.6618 193.5,49.5C 192.5,49.1667 191.833,48.5 191.5,47.5C 190.89,46.609 190.557,45.609 190.5,44.5C 191.338,44.1583 191.672,43.4916 191.5,42.5 Z"/></g>
<g><path style="opacity:0.941" fill="#4e5e5c" d="M 226.5,44.5 C 228.208,46.5435 230.208,48.2101 232.5,49.5C 231.209,49.2627 230.209,49.596 229.5,50.5C 228.85,50.1961 228.183,49.8627 227.5,49.5C 225.382,50.9459 223.049,51.6126 220.5,51.5C 220.5,50.8333 220.833,50.5 221.5,50.5C 223.404,50.2624 224.738,49.2624 225.5,47.5C 226.239,47.631 226.906,47.4643 227.5,47C 226.748,46.3292 226.414,45.4959 226.5,44.5 Z"/></g>
<g><path style="opacity:0.098" fill="#e9eaea" d="M 34.5,47.5 C 37.9387,47.2529 41.272,47.5863 44.5,48.5C 44.5,48.8333 44.5,49.1667 44.5,49.5C 40.8333,49.5 37.1667,49.5 33.5,49.5C 33.8333,48.8333 34.1667,48.1667 34.5,47.5 Z"/></g>
<g><path style="opacity:1" fill="#2a4843" d="M 149.5,45.5 C 150.167,45.5 150.833,45.5 151.5,45.5C 151.5,47.1667 151.5,48.8333 151.5,50.5C 151.5,50.8333 151.5,51.1667 151.5,51.5C 150.833,51.5 150.167,51.5 149.5,51.5C 149.5,50.1667 148.833,49.5 147.5,49.5C 147.5,48.8333 147.5,48.1667 147.5,47.5C 148.833,47.5 149.5,46.8333 149.5,45.5 Z"/></g>
<g><path style="opacity:1" fill="#232929" d="M 158.5,47.5 C 159.5,47.5 160.5,47.5 161.5,47.5C 162.167,47.5 162.833,47.5 163.5,47.5C 166.617,49.7766 169.951,50.11 173.5,48.5C 174.5,49.1667 175.5,49.8333 176.5,50.5C 172.5,50.5 168.5,50.5 164.5,50.5C 164.167,50.5 163.833,50.5 163.5,50.5C 162.828,49.7326 161.995,49.0659 161,48.5C 158.894,50.291 156.394,50.9577 153.5,50.5C 153.5,50.1667 153.5,49.8333 153.5,49.5C 155.781,49.9227 157.448,49.256 158.5,47.5 Z"/></g>
<g><path style="opacity:0.824" fill="#4f837b" d="M 189.5,43.5 C 190.167,43.5 190.5,43.8333 190.5,44.5C 190.557,45.609 190.89,46.609 191.5,47.5C 190.566,48.5676 190.232,49.901 190.5,51.5C 189.5,51.5 188.5,51.5 187.5,51.5C 187.5,51.1667 187.5,50.8333 187.5,50.5C 187.5,50.1667 187.5,49.8333 187.5,49.5C 187.5,48.1667 187.5,46.8333 187.5,45.5C 187.833,45.5 188.167,45.5 188.5,45.5C 189.338,45.1583 189.672,44.4916 189.5,43.5 Z"/></g>
<g><path style="opacity:1" fill="#495351" d="M 211.5,46.5 C 212.872,47.5116 214.205,48.5116 215.5,49.5C 214.209,49.2627 213.209,49.596 212.5,50.5C 210.549,49.3586 208.549,49.3586 206.5,50.5C 207.145,49.1882 208.145,48.1882 209.5,47.5C 210.944,48.981 211.611,48.6477 211.5,46.5 Z"/></g>
<g><path style="opacity:0.973" fill="#263634" d="M 223.5,45.5 C 224.167,46.1667 224.833,46.8333 225.5,47.5C 224.738,49.2624 223.404,50.2624 221.5,50.5C 221.158,49.6618 220.492,49.3284 219.5,49.5C 220.29,48.5987 221.29,47.9321 222.5,47.5C 223.338,47.1583 223.672,46.4916 223.5,45.5 Z"/></g>
<g><path style="opacity:0.957" fill="#1f2626" d="M 78.5,45.5 C 79.3382,45.8417 79.6716,46.5084 79.5,47.5C 78.7888,49.0301 77.7888,50.3634 76.5,51.5C 72.2984,51.8168 68.2984,51.4834 64.5,50.5C 64.8417,49.6618 65.5084,49.3284 66.5,49.5C 70.9816,49.9661 74.9816,48.9661 78.5,46.5C 78.5,46.1667 78.5,45.8333 78.5,45.5 Z"/></g>
<g><path style="opacity:0.987" fill="#272b2b" d="M 84.5,48.5 C 87.5,49.8333 90.5,49.8333 93.5,48.5C 94.1667,48.5 94.5,48.8333 94.5,49.5C 91.3752,50.4794 88.0419,50.8128 84.5,50.5C 83.5084,50.6716 82.8417,50.3382 82.5,49.5C 82.8417,48.6618 83.5084,48.3284 84.5,48.5 Z"/></g>
<g><path style="opacity:0.912" fill="#2f3032" d="M 122.5,49.5 C 124.167,49.5 125.833,49.5 127.5,49.5C 127.5,50.1667 127.5,50.8333 127.5,51.5C 125.5,51.5 123.5,51.5 121.5,51.5C 121.5,51.1667 121.5,50.8333 121.5,50.5C 122.167,50.5 122.5,50.1667 122.5,49.5 Z"/></g>
<g><path style="opacity:0.999" fill="#161817" d="M 127.5,47.5 C 127.5,47.1667 127.5,46.8333 127.5,46.5C 128.791,46.2627 129.791,46.596 130.5,47.5C 132.279,49.3435 134.612,50.0102 137.5,49.5C 138.167,48.8333 138.833,48.1667 139.5,47.5C 139.5,48.5 139.5,49.5 139.5,50.5C 135.833,50.5 132.167,50.5 128.5,50.5C 128.737,49.209 128.404,48.209 127.5,47.5 Z"/></g>
<g><path style="opacity:0.998" fill="#020506" d="M 178.5,49.5 C 180.833,49.5 183.167,49.5 185.5,49.5C 186.167,49.5 186.833,49.5 187.5,49.5C 187.5,49.8333 187.5,50.1667 187.5,50.5C 183.833,50.5 180.167,50.5 176.5,50.5C 175.5,49.8333 174.5,49.1667 173.5,48.5C 174.583,48.4606 175.583,48.1272 176.5,47.5C 177.182,48.2427 177.849,48.9094 178.5,49.5 Z"/></g>
<g><path style="opacity:0.996" fill="#2c2f2f" d="M 205.5,47.5 C 205.833,47.5 206.167,47.5 206.5,47.5C 205.375,48.6522 205.375,49.6522 206.5,50.5C 204.866,51.1611 203.033,51.4944 201,51.5C 198.134,51.7001 195.634,51.0334 193.5,49.5C 193.842,48.6618 194.508,48.3284 195.5,48.5C 198.993,49.8939 202.326,49.5606 205.5,47.5 Z"/></g>
<g><path style="opacity:0.81" fill="#393c3b" d="M 25.5,45.5 C 25.5,47.1667 25.5,48.8333 25.5,50.5C 32.1667,50.5 38.8333,50.5 45.5,50.5C 45.8333,50.5 46.1667,50.5 46.5,50.5C 46.5,50.8333 46.5,51.1667 46.5,51.5C 39.1667,51.5 31.8333,51.5 24.5,51.5C 24.2053,49.2646 24.5386,47.2646 25.5,45.5 Z"/></g>
<g><path style="opacity:0.792" fill="#4d5755" d="M 94.5,49.5 C 95.5,49.5 96.5,49.5 97.5,49.5C 97.5,49.8333 97.5,50.1667 97.5,50.5C 97.5,50.8333 97.5,51.1667 97.5,51.5C 93.184,51.7009 88.8507,51.3675 84.5,50.5C 88.0419,50.8128 91.3752,50.4794 94.5,49.5 Z"/></g>
<g><path style="opacity:0.78" fill="#2f3b38" d="M 118.5,45.5 C 119.167,45.5 119.833,45.5 120.5,45.5C 120.216,47.4147 120.549,49.0813 121.5,50.5C 121.5,50.8333 121.5,51.1667 121.5,51.5C 113.5,51.5 105.5,51.5 97.5,51.5C 97.5,51.1667 97.5,50.8333 97.5,50.5C 101.371,50.815 105.038,50.4816 108.5,49.5C 108.5,48.1667 109.167,47.5 110.5,47.5C 110.5,48.5 110.5,49.5 110.5,50.5C 113.167,50.5 115.833,50.5 118.5,50.5C 119.72,48.9504 119.72,47.2837 118.5,45.5 Z"/></g>
<g><path style="opacity:0.859" fill="#373938" d="M 127.5,47.5 C 128.404,48.209 128.737,49.209 128.5,50.5C 132.167,50.5 135.833,50.5 139.5,50.5C 139.5,50.8333 139.5,51.1667 139.5,51.5C 135.347,52.0198 131.347,52.0198 127.5,51.5C 127.5,50.8333 127.5,50.1667 127.5,49.5C 127.5,48.8333 127.5,48.1667 127.5,47.5 Z"/></g>
<g><path style="opacity:0.835" fill="#232525" d="M 143.5,49.5 C 144.833,49.5 146.167,49.5 147.5,49.5C 148.833,49.5 149.5,50.1667 149.5,51.5C 146.833,51.5 144.167,51.5 141.5,51.5C 141.5,50.1667 142.167,49.5 143.5,49.5 Z"/></g>
<g><path style="opacity:0.863" fill="#394545" d="M 163.5,50.5 C 159.702,51.4834 155.702,51.8168 151.5,51.5C 151.5,51.1667 151.5,50.8333 151.5,50.5C 152.167,50.5 152.833,50.5 153.5,50.5C 156.394,50.9577 158.894,50.291 161,48.5C 161.995,49.0659 162.828,49.7326 163.5,50.5 Z"/></g>
<g><path style="opacity:0.894" fill="#3e4344" d="M 164.5,50.5 C 168.5,50.5 172.5,50.5 176.5,50.5C 180.167,50.5 183.833,50.5 187.5,50.5C 187.5,50.8333 187.5,51.1667 187.5,51.5C 181.242,51.1903 175.076,51.5236 169,52.5C 167.378,51.9011 165.878,51.2344 164.5,50.5 Z"/></g>
<g><path style="opacity:0.953" fill="#1e201e" d="M 215.5,49.5 C 216.833,49.5 218.167,49.5 219.5,49.5C 220.492,49.3284 221.158,49.6618 221.5,50.5C 220.833,50.5 220.5,50.8333 220.5,51.5C 217.615,51.8064 214.948,51.4731 212.5,50.5C 213.209,49.596 214.209,49.2627 215.5,49.5 Z"/></g>
<g><path style="opacity:0.898" fill="#1e2220" d="M 232.5,49.5 C 233.833,49.5 235.167,49.5 236.5,49.5C 237.492,49.3284 238.158,49.6618 238.5,50.5C 237.833,50.5 237.5,50.8333 237.5,51.5C 234.615,51.8064 231.948,51.4731 229.5,50.5C 230.209,49.596 231.209,49.2627 232.5,49.5 Z"/></g>
</svg>
